<svg width="64" height="86" viewBox="0 0 64 86" fill="none" xmlns="http://www.w3.org/2000/svg">
<g clip-path="url(#clip0_210_37818)">
<path d="M20 52H44V40H40V42C40 42.5304 39.7893 43.0391 39.4142 43.4142C39.0391 43.7893 38.5304 44 38 44C37.4696 44 36.9609 43.7893 36.5858 43.4142C36.2107 43.0391 36 42.5304 36 42V40H20V52Z" fill="url(#paint0_linear_210_37818)"/>
<path d="M24 8V9.364C14.68 12.66 8 21.552 8 32V36.764L3.32 39.104C2.32253 39.602 1.48354 40.368 0.897113 41.3162C0.31069 42.2643 3.76601e-05 43.3571 0 44.472L0 54C0 55.5913 0.632141 57.1174 1.75736 58.2426C2.88258 59.3679 4.4087 60 6 60H10C11.824 62.428 14.728 64 18 64H46C49.272 64 52.176 62.428 54 60H58C59.5913 60 61.1174 59.3679 62.2426 58.2426C63.3679 57.1174 64 55.5913 64 54V44.472C64 43.3571 63.6893 42.2643 63.1029 41.3162C62.5165 40.368 61.6775 39.602 60.68 39.104L56 36.764V32C56.0018 27.0355 54.4639 22.1926 51.5984 18.1385C48.7328 14.0845 44.6806 11.0188 40 9.364V8C40 5.87827 39.1571 3.84344 37.6569 2.34315C36.1566 0.842855 34.1217 0 32 0C29.8783 0 27.8434 0.842855 26.3431 2.34315C24.8429 3.84344 24 5.87827 24 8ZM32 4C33.0609 4 34.0783 4.42143 34.8284 5.17157C35.5786 5.92172 36 6.93913 36 8V8.332C33.3521 7.88443 30.6479 7.88443 28 8.332V8C28 6.93913 28.4214 5.92172 29.1716 5.17157C29.9217 4.42143 30.9391 4 32 4ZM32 16C35.849 15.9992 39.5693 17.386 42.4787 19.906C45.3881 22.4259 47.2915 25.9103 47.84 29.72C47.8817 29.9823 47.8708 30.2502 47.8079 30.5082C47.745 30.7662 47.6313 31.0091 47.4735 31.2227C47.3157 31.4363 47.117 31.6163 46.8889 31.7523C46.6607 31.8882 46.4078 31.9774 46.1449 32.0146C45.882 32.0518 45.6142 32.0362 45.3574 31.9688C45.1005 31.9015 44.8596 31.7836 44.6488 31.6221C44.438 31.4607 44.2614 31.2588 44.1294 31.0284C43.9974 30.798 43.9126 30.5435 43.88 30.28C43.4724 27.4196 42.0465 24.8022 39.864 22.9088C37.6816 21.0153 34.8893 19.9728 32 19.9728C29.1107 19.9728 26.3184 21.0153 24.136 22.9088C21.9535 24.8022 20.5276 27.4196 20.12 30.28C20.0874 30.5435 20.0026 30.798 19.8706 31.0284C19.7386 31.2588 19.562 31.4607 19.3512 31.6221C19.1404 31.7836 18.8995 31.9015 18.6426 31.9688C18.3858 32.0362 18.1181 32.0518 17.8551 32.0146C17.5922 31.9774 17.3393 31.8882 17.1111 31.7523C16.883 31.6163 16.6843 31.4363 16.5265 31.2227C16.3687 31.0091 16.255 30.7662 16.1921 30.5082C16.1292 30.2502 16.1183 29.9823 16.16 29.72C16.7085 25.9103 18.6119 22.4259 21.5213 19.906C24.4307 17.386 28.151 15.9992 32 16ZM18 36H46C46.5304 36 47.0391 36.2107 47.4142 36.5858C47.7893 36.9609 48 37.4696 48 38V54C48 54.5304 47.7893 55.0391 47.4142 55.4142C47.0391 55.7893 46.5304 56 46 56H18C17.4696 56 16.9609 55.7893 16.5858 55.4142C16.2107 55.0391 16 54.5304 16 54V38C16 37.4696 16.2107 36.9609 16.5858 36.5858C16.9609 36.2107 17.4696 36 18 36Z" fill="url(#paint1_linear_210_37818)"/>
<path d="M58.2661 85.3656L61.8644 63.6285C61.8644 63.6285 59.7506 62.4209 58.2661 62.4021C56.7243 62.3826 54.5131 63.6285 54.5131 63.6285L56.4664 79.3907L57.3303 75.4315L58.2661 85.3656Z" fill="url(#paint2_linear_210_37818)"/>
<path d="M5.49894 85.3656L1.90063 63.6285C1.90063 63.6285 4.01446 62.4209 5.49894 62.4021C7.04073 62.3826 9.25195 63.6285 9.25195 63.6285L7.29858 79.3907L6.43476 75.4315L5.49894 85.3656Z" fill="url(#paint3_linear_210_37818)"/>
</g>
<defs>
<linearGradient id="paint0_linear_210_37818" x1="20" y1="40" x2="44" y2="40" gradientUnits="userSpaceOnUse">
<stop stop-color="#F2BA01"/>
<stop offset="0.142857" stop-color="#F5B203"/>
<stop offset="0.285714" stop-color="#F8A908"/>
<stop offset="0.428571" stop-color="#FBA00F"/>
<stop offset="0.571429" stop-color="#FD9817"/>
<stop offset="0.714286" stop-color="#FE8F1E"/>
<stop offset="0.857143" stop-color="#FF8624"/>
<stop offset="1" stop-color="#FF7D2A"/>
</linearGradient>
<linearGradient id="paint1_linear_210_37818" x1="0" y1="0" x2="64" y2="0" gradientUnits="userSpaceOnUse">
<stop stop-color="#F2BA01"/>
<stop offset="0.142857" stop-color="#F5B203"/>
<stop offset="0.285714" stop-color="#F8A908"/>
<stop offset="0.428571" stop-color="#FBA00F"/>
<stop offset="0.571429" stop-color="#FD9817"/>
<stop offset="0.714286" stop-color="#FE8F1E"/>
<stop offset="0.857143" stop-color="#FF8624"/>
<stop offset="1" stop-color="#FF7D2A"/>
</linearGradient>
<linearGradient id="paint2_linear_210_37818" x1="54.5131" y1="62.4021" x2="61.8644" y2="62.4021" gradientUnits="userSpaceOnUse">
<stop stop-color="#F2BA01"/>
<stop offset="0.142857" stop-color="#F5B203"/>
<stop offset="0.285714" stop-color="#F8A908"/>
<stop offset="0.428571" stop-color="#FBA00F"/>
<stop offset="0.571429" stop-color="#FD9817"/>
<stop offset="0.714286" stop-color="#FE8F1E"/>
<stop offset="0.857143" stop-color="#FF8624"/>
<stop offset="1" stop-color="#FF7D2A"/>
</linearGradient>
<linearGradient id="paint3_linear_210_37818" x1="9.25195" y1="62.4021" x2="1.90063" y2="62.4021" gradientUnits="userSpaceOnUse">
<stop stop-color="#F2BA01"/>
<stop offset="0.142857" stop-color="#F5B203"/>
<stop offset="0.285714" stop-color="#F8A908"/>
<stop offset="0.428571" stop-color="#FBA00F"/>
<stop offset="0.571429" stop-color="#FD9817"/>
<stop offset="0.714286" stop-color="#FE8F1E"/>
<stop offset="0.857143" stop-color="#FF8624"/>
<stop offset="1" stop-color="#FF7D2A"/>
</linearGradient>
<clipPath id="clip0_210_37818">
<rect width="64" height="86" fill="white"/>
</clipPath>
</defs>
</svg>
