<svg width="64" height="64" viewBox="0 0 64 64" fill="none" xmlns="http://www.w3.org/2000/svg">
<path d="M20 52V40H36V42C36 42.5304 36.2107 43.0391 36.5858 43.4142C36.9609 43.7893 37.4696 44 38 44C38.5304 44 39.0391 43.7893 39.4142 43.4142C39.7893 43.0391 40 42.5304 40 42V40H44V52H20Z" fill="url(#paint0_linear_210_37805)"/>
<path d="M24 8V9.364C14.68 12.66 8 21.552 8 32V54C8 56.6522 9.05357 59.1957 10.9289 61.0711C12.8043 62.9464 15.3478 64 18 64H46C48.6522 64 51.1957 62.9464 53.0711 61.0711C54.9464 59.1957 56 56.6522 56 54V32C56.0018 27.0355 54.4639 22.1926 51.5984 18.1385C48.7328 14.0845 44.6806 11.0188 40 9.364V8C40 5.87827 39.1571 3.84344 37.6569 2.34315C36.1566 0.842855 34.1217 0 32 0C29.8783 0 27.8434 0.842855 26.3431 2.34315C24.8429 3.84344 24 5.87827 24 8ZM32 4C33.0609 4 34.0783 4.42143 34.8284 5.17157C35.5786 5.92172 36 6.93913 36 8V8.332C33.3521 7.88443 30.6479 7.88443 28 8.332V8C28 6.93913 28.4214 5.92172 29.1716 5.17157C29.9217 4.42143 30.9391 4 32 4ZM32 16C35.849 15.9992 39.5693 17.386 42.4787 19.906C45.3881 22.4259 47.2915 25.9103 47.84 29.72C47.8817 29.9823 47.8708 30.2502 47.8079 30.5082C47.745 30.7662 47.6313 31.0091 47.4735 31.2227C47.3157 31.4363 47.117 31.6163 46.8889 31.7523C46.6607 31.8882 46.4078 31.9774 46.1449 32.0146C45.882 32.0518 45.6142 32.0362 45.3574 31.9688C45.1005 31.9015 44.8596 31.7836 44.6488 31.6221C44.438 31.4607 44.2614 31.2588 44.1294 31.0284C43.9974 30.798 43.9126 30.5435 43.88 30.28C43.4724 27.4196 42.0465 24.8022 39.864 22.9088C37.6816 21.0153 34.8893 19.9728 32 19.9728C29.1107 19.9728 26.3184 21.0153 24.136 22.9088C21.9535 24.8022 20.5276 27.4196 20.12 30.28C20.0874 30.5435 20.0026 30.798 19.8706 31.0284C19.7386 31.2588 19.562 31.4607 19.3512 31.6221C19.1404 31.7836 18.8995 31.9015 18.6426 31.9688C18.3858 32.0362 18.1181 32.0518 17.8551 32.0146C17.5922 31.9774 17.3393 31.8882 17.1111 31.7523C16.883 31.6163 16.6843 31.4363 16.5265 31.2227C16.3687 31.0091 16.255 30.7662 16.1921 30.5082C16.1292 30.2502 16.1183 29.9823 16.16 29.72C16.7085 25.9103 18.6119 22.4259 21.5213 19.906C24.4307 17.386 28.151 15.9992 32 16ZM18 36H46C46.5304 36 47.0391 36.2107 47.4142 36.5858C47.7893 36.9609 48 37.4696 48 38V54C48 54.5304 47.7893 55.0391 47.4142 55.4142C47.0391 55.7893 46.5304 56 46 56H18C17.4696 56 16.9609 55.7893 16.5858 55.4142C16.2107 55.0391 16 54.5304 16 54V38C16 37.4696 16.2107 36.9609 16.5858 36.5858C16.9609 36.2107 17.4696 36 18 36Z" fill="url(#paint1_linear_210_37805)"/>
<defs>
<linearGradient id="paint0_linear_210_37805" x1="20" y1="40" x2="44" y2="40" gradientUnits="userSpaceOnUse">
<stop stop-color="#1D508B"/>
<stop offset="0.142857" stop-color="#225A9C"/>
<stop offset="0.285714" stop-color="#2765AD"/>
<stop offset="0.428571" stop-color="#2C6FBE"/>
<stop offset="0.571429" stop-color="#327ACE"/>
<stop offset="0.714286" stop-color="#4585D1"/>
<stop offset="0.857143" stop-color="#5890D4"/>
<stop offset="1" stop-color="#6A9CD8"/>
</linearGradient>
<linearGradient id="paint1_linear_210_37805" x1="8" y1="0" x2="56" y2="0" gradientUnits="userSpaceOnUse">
<stop stop-color="#1D508B"/>
<stop offset="0.142857" stop-color="#225A9C"/>
<stop offset="0.285714" stop-color="#2765AD"/>
<stop offset="0.428571" stop-color="#2C6FBE"/>
<stop offset="0.571429" stop-color="#327ACE"/>
<stop offset="0.714286" stop-color="#4585D1"/>
<stop offset="0.857143" stop-color="#5890D4"/>
<stop offset="1" stop-color="#6A9CD8"/>
</linearGradient>
</defs>
</svg>
