<svg width="152" height="108" viewBox="0 0 152 108" fill="none" xmlns="http://www.w3.org/2000/svg">
<circle cx="109.218" cy="43.2823" r="42.0198" stroke="#F05E00" stroke-width="1.5251" stroke-dasharray="3.05 3.05"/>
<ellipse cx="69.7445" cy="77.294" rx="44.8122" ry="8.64458" fill="#112E50"/>
<path d="M24.9323 77.2941C24.9323 77.2941 30.8928 84.9196 69.7445 84.9196C108.596 84.9196 114.557 77.2941 114.557 77.2941V100.375C114.557 100.375 108.596 108 69.7445 108C30.8928 108 24.9323 100.375 24.9323 100.375V77.2941Z" fill="#173F6D"/>
<ellipse cx="69.7445" cy="53.2964" rx="44.8122" ry="8.64458" fill="#2462A8"/>
<path d="M24.9323 53.2964C24.9323 53.2964 30.8928 60.9219 69.7445 60.9219C108.596 60.9219 114.557 53.2964 114.557 53.2964V76.3769C114.557 76.3769 108.596 84.0024 69.7445 84.0024C30.8928 84.0024 24.9323 76.3769 24.9323 76.3769V53.2964Z" fill="#2A73C6"/>
<ellipse cx="69.7445" cy="29.2989" rx="44.8122" ry="8.64458" fill="#BFD5EE"/>
<path d="M24.9323 29.2988C24.9323 29.2988 30.8928 36.9243 69.7445 36.9243C108.596 36.9243 114.557 29.2988 114.557 29.2988V52.3793C114.557 52.3793 108.596 60.0048 69.7445 60.0048C30.8928 60.0048 24.9323 52.3793 24.9323 52.3793V29.2988Z" fill="#699BD8"/>
<circle cx="7.32265" cy="85.9534" r="6.69362" fill="#F2BA01"/>
</svg>
