<svg width="191" height="99" viewBox="0 0 191 99" fill="none" xmlns="http://www.w3.org/2000/svg">
<path d="M185.029 45.4544C182.083 45.4544 179.695 47.8422 179.695 50.7877C179.695 53.7332 182.083 56.1211 185.029 56.1211C187.974 56.1211 190.362 53.7332 190.362 50.7877C190.362 47.8422 187.974 45.4544 185.029 45.4544ZM0.0555632 51.7877L185.029 51.7877L185.029 49.7877L0.0555631 49.7877L0.0555632 51.7877Z" fill="black" fill-opacity="0.05"/>
<path d="M86.8329 25.0414L86.8329 24.0414L86.498 24.0414L86.2307 24.2431L86.8329 25.0414ZM127.548 25.0414L127.548 26.0414L127.962 26.0414L128.255 25.7486L127.548 25.0414ZM146.708 0.547892C143.763 0.547892 141.375 2.93571 141.375 5.88123C141.375 8.82674 143.763 11.2146 146.708 11.2146C149.654 11.2146 152.042 8.82674 152.042 5.88123C152.042 2.93571 149.654 0.547892 146.708 0.547892ZM53.3061 51.5861L87.4352 25.8398L86.2307 24.2431L52.1016 49.9895L53.3061 51.5861ZM86.8329 26.0414L127.548 26.0414L127.548 24.0414L86.8329 24.0414L86.8329 26.0414ZM128.255 25.7486L147.416 6.58833L146.001 5.17412L126.841 24.3343L128.255 25.7486Z" fill="black" fill-opacity="0.05"/>
<path d="M106.891 62.5191C103.946 62.5191 101.558 64.9069 101.558 67.8524C101.558 70.7979 103.946 73.1858 106.891 73.1858C109.837 73.1858 112.224 70.7979 112.224 67.8524C112.224 64.9069 109.837 62.5191 106.891 62.5191ZM89.7182 52.0937L106.184 68.5595L107.598 67.1453L91.1325 50.6795L89.7182 52.0937Z" fill="black" fill-opacity="0.05"/>
<path d="M76.9194 63.3617L77.6112 62.6396L77.3211 62.3617L76.9194 62.3617L76.9194 63.3617ZM103.79 89.1082L103.099 89.8302L103.389 90.1082L103.79 90.1082L103.79 89.1082ZM147.534 83.7748C144.589 83.7748 142.201 86.1626 142.201 89.1082C142.201 92.0537 144.589 94.4415 147.534 94.4415C150.48 94.4415 152.868 92.0537 152.868 89.1082C152.868 86.1626 150.48 83.7748 147.534 83.7748ZM-9.11939e-05 64.3617L76.9194 64.3617L76.9194 62.3617L-9.10131e-05 62.3617L-9.11939e-05 64.3617ZM76.2275 64.0838L103.099 89.8302L104.482 88.3861L77.6112 62.6396L76.2275 64.0838ZM103.79 90.1082L147.534 90.1082L147.534 88.1082L103.79 88.1082L103.79 90.1082Z" fill="black" fill-opacity="0.05"/>
<path d="M70.0454 74.7379L70.7373 74.0159L70.4472 73.7379L70.0454 73.7379L70.0454 74.7379ZM89.1052 87.6667C86.1597 87.6667 83.7719 90.0545 83.7719 93C83.7719 95.9455 86.1597 98.3333 89.1052 98.3333C92.0507 98.3333 94.4386 95.9455 94.4386 93C94.4386 90.0545 92.0507 87.6667 89.1052 87.6667ZM0.0555614 75.7379L70.0454 75.7379L70.0454 73.7379L0.0555614 73.7379L0.0555614 75.7379ZM69.3536 75.46L88.4134 93.7221L89.7971 92.278L70.7373 74.0159L69.3536 75.46Z" fill="black" fill-opacity="0.05"/>
</svg>
