<svg width="351" height="24" viewBox="0 0 351 24" fill="none" xmlns="http://www.w3.org/2000/svg">
<path d="M0 9.35153C0 8.54836 0.145559 7.80366 0.436028 7.11745C0.727147 6.4319 1.12873 5.83601 1.64144 5.33045C2.15415 4.8249 2.75393 4.42656 3.43949 4.13544C4.12505 3.84432 4.86324 3.69876 5.65277 3.69876C6.4423 3.69876 7.17984 3.84757 7.86605 4.14584C8.55226 4.4441 9.14749 4.84569 9.65305 5.35125C10.1586 5.85681 10.5602 6.45269 10.8585 7.13825C11.1561 7.82381 11.3055 8.562 11.3055 9.35153C11.3055 10.1411 11.1567 10.8786 10.8585 11.5648C10.5602 12.2504 10.1586 12.8463 9.65305 13.3518C9.14684 13.8574 8.55161 14.2596 7.86605 14.5572C7.18049 14.8548 6.44295 15.0043 5.65277 15.0043C5.05689 15.0043 4.45775 14.8828 3.85472 14.6404C3.25234 14.398 2.77082 14.1108 2.41018 13.7781V21.1412H0V9.35153ZM2.41083 9.35153C2.41083 9.79536 2.49725 10.2138 2.67075 10.6089C2.84361 11.004 3.07624 11.3465 3.36671 11.6376C3.65783 11.9287 4.00093 12.1607 4.39537 12.3335C4.79046 12.507 5.20894 12.5935 5.65277 12.5935C6.09595 12.5935 6.51508 12.507 6.90952 12.3335C7.30461 12.1607 7.64771 11.9281 7.93818 11.6376C8.22865 11.3465 8.46128 11.004 8.63414 10.6089C8.80699 10.2138 8.89406 9.79536 8.89406 9.35153C8.89406 8.90835 8.80699 8.48922 8.63414 8.09413C8.46063 7.69904 8.22865 7.35659 7.93818 7.06547C7.64771 6.77435 7.30396 6.54237 6.90952 6.36951C6.51443 6.19666 6.0953 6.10959 5.65277 6.10959C5.20894 6.10959 4.79046 6.19601 4.39537 6.36951C4.00028 6.54302 3.65783 6.775 3.36671 7.06547C3.07624 7.35659 2.84361 7.69904 2.67075 8.09413C2.49725 8.48922 2.41083 8.90835 2.41083 9.35153Z" fill="#2A72C7"/>
<path d="M25.2838 9.33075C25.2838 8.54122 25.4326 7.80367 25.7302 7.11747C26.0279 6.43191 26.4333 5.83602 26.946 5.33047C27.4581 4.82491 28.0579 4.42332 28.7434 4.12505C29.4297 3.82744 30.1672 3.67798 30.9567 3.67798C31.7463 3.67798 32.4845 3.82679 33.17 4.12505C33.8556 4.42332 34.4515 4.82491 34.957 5.33047C35.4626 5.83602 35.8642 6.43191 36.1624 7.11747C36.46 7.80302 36.6088 8.54122 36.6088 9.33075V14.5468H34.198V13.9646C33.2558 14.6437 32.1751 14.9829 30.9561 14.9829C30.097 14.9829 29.3172 14.8373 28.618 14.5468C27.9182 14.2557 27.3223 13.8541 26.831 13.3414C26.3391 12.8287 25.9583 12.2296 25.688 11.544C25.4183 10.8585 25.2838 10.1209 25.2838 9.33075ZM27.694 9.33075C27.694 9.77457 27.7804 10.1931 27.9546 10.5881C28.1281 10.9832 28.3607 11.3263 28.6531 11.6168C28.9449 11.9079 29.2886 12.1399 29.685 12.3128C30.0814 12.4863 30.5019 12.5727 30.947 12.5727C31.3915 12.5727 31.8119 12.4934 32.2076 12.3336C32.604 12.1744 32.9478 11.9489 33.2395 11.6584C33.5313 11.3673 33.7646 11.0248 33.9381 10.6297C34.1116 10.2346 34.1987 9.80187 34.1987 9.33075C34.1987 8.88757 34.1116 8.46844 33.9381 8.07335C33.7646 7.67826 33.532 7.33581 33.2395 7.04469C32.9478 6.75357 32.604 6.52158 32.2076 6.34873C31.8112 6.17588 31.3915 6.0888 30.947 6.0888C30.5019 6.0888 30.0814 6.17523 29.685 6.34873C29.2886 6.52223 28.9449 6.75422 28.6531 7.04469C28.3614 7.33581 28.1287 7.67826 27.9546 8.07335C27.7811 8.46844 27.694 8.88757 27.694 9.33075Z" fill="#2A72C7"/>
<path d="M40.7534 7.81407L44.5561 4.15624H47.798L43.2467 8.5828L47.798 14.5475H44.6601L41.4389 10.3289L40.7741 10.9728V14.5475H38.3425V0H40.7534V7.81407Z" fill="#2A72C7"/>
<path d="M50.8502 9.49711C50.8638 9.92664 50.9607 10.3282 51.1407 10.7025C51.3207 11.0762 51.5566 11.4024 51.8477 11.6792C52.1381 11.9567 52.478 12.175 52.8659 12.3342C53.2539 12.4934 53.662 12.5734 54.0921 12.5734C54.8121 12.5734 55.4288 12.3966 55.9415 12.0438C56.4542 11.6902 56.8285 11.2159 57.0638 10.62H59.7027C59.4668 11.4095 59.1549 12.0821 58.7676 12.6357C58.3796 13.19 57.9365 13.6404 57.4381 13.9867C56.939 14.3331 56.4055 14.5858 55.8376 14.745C55.2696 14.9043 54.6874 14.9842 54.0915 14.9842C53.302 14.9842 52.5644 14.8354 51.8782 14.5378C51.1927 14.2401 50.5955 13.8385 50.0873 13.3323C49.5785 12.8268 49.1769 12.2309 48.8819 11.5453C48.5862 10.8598 48.4387 10.1216 48.4387 9.33206C48.4387 8.54253 48.5862 7.80499 48.8819 7.11878C49.1769 6.43322 49.5785 5.83734 50.0873 5.33178C50.5948 4.82622 51.1927 4.42463 51.8782 4.12637C52.5644 3.82875 53.302 3.67929 54.0915 3.67929C54.9642 3.67929 55.7466 3.8385 56.4399 4.15756C57.1326 4.47662 57.7214 4.90225 58.2061 5.43575C58.6903 5.96925 59.0684 6.58918 59.3388 7.29553C59.6091 8.00188 59.7508 8.73683 59.7644 9.49841H50.8502V9.49711ZM57.0638 7.87582C56.8558 7.29358 56.4887 6.79907 55.9623 6.38968C55.436 5.9816 54.8199 5.7769 54.1129 5.7769C53.4066 5.7769 52.7899 5.9816 52.2636 6.38968C51.7366 6.79842 51.3694 7.29358 51.1621 7.87582H57.0638Z" fill="#2A72C7"/>
<path d="M78.6696 9.33075C78.6696 8.54122 78.8184 7.80367 79.116 7.11747C79.4136 6.43191 79.8191 5.83602 80.3318 5.33047C80.8438 4.82491 81.4436 4.42332 82.1292 4.12505C82.8154 3.82744 83.5529 3.67798 84.3425 3.67798C85.132 3.67798 85.8702 3.82679 86.5557 4.12505C87.2413 4.42332 87.8372 4.82491 88.3427 5.33047C88.8483 5.83602 89.2499 6.43191 89.5482 7.11747C89.8458 7.80302 89.9946 8.54122 89.9946 9.33075V14.5468H87.5838V13.9646C86.6415 14.6437 85.5609 14.9829 84.3418 14.9829C83.4828 14.9829 82.703 14.8373 82.0038 14.5468C81.3039 14.2557 80.708 13.8541 80.2168 13.3414C79.7249 12.8287 79.3441 12.2296 79.0737 11.544C78.8041 10.8585 78.6696 10.1209 78.6696 9.33075ZM81.0797 9.33075C81.0797 9.77457 81.1662 10.1931 81.3403 10.5881C81.5145 10.9832 81.7464 11.3263 82.0389 11.6168C82.3313 11.9073 82.6744 12.1399 83.0708 12.3128C83.4672 12.4863 83.8876 12.5727 84.3327 12.5727C84.7772 12.5727 85.1976 12.4934 85.5934 12.3336C85.9898 12.1744 86.3335 11.9489 86.6253 11.6584C86.917 11.3673 87.1503 11.0248 87.3238 10.6297C87.498 10.2346 87.5844 9.80187 87.5844 9.33075C87.5844 8.88757 87.4973 8.46844 87.3238 8.07335C87.1503 7.67826 86.9177 7.33581 86.6253 7.04469C86.3335 6.75357 85.9898 6.52158 85.5934 6.34873C85.197 6.17588 84.7772 6.0888 84.3327 6.0888C83.8876 6.0888 83.4672 6.17523 83.0708 6.34873C82.6744 6.52223 82.3306 6.75422 82.0389 7.04469C81.7471 7.33581 81.5145 7.67826 81.3403 8.07335C81.1662 8.46844 81.0797 8.88757 81.0797 9.33075Z" fill="#2A72C7"/>
<path d="M12.9834 7.11747C13.2816 6.43191 13.6832 5.83602 14.1888 5.33047C14.695 4.82491 15.2902 4.42332 15.9758 4.12505C16.662 3.82744 17.3995 3.67798 18.1891 3.67798C18.9786 3.67798 19.7168 3.82679 20.4023 4.12505C21.0879 4.42332 21.6877 4.82491 22.1997 5.33047C22.7124 5.83602 23.1179 6.43191 23.4156 7.11747C23.7132 7.80302 23.862 8.54057 23.862 9.33075H21.4512C21.4512 8.88757 21.3647 8.46844 21.1906 8.07335C21.0164 7.67826 20.7844 7.33581 20.492 7.04469C20.2003 6.75357 19.8565 6.52158 19.4601 6.34873C19.0637 6.17588 18.6433 6.0888 18.1982 6.0888C17.7537 6.0888 17.3333 6.17523 16.9375 6.34873C16.5411 6.52223 16.1974 6.75422 15.9056 7.04469C15.6132 7.33581 15.3805 7.67826 15.207 8.07335C15.0329 8.46844 14.9465 8.88757 14.9465 9.33075V13.9653V14.5475H12.5356V9.3314C12.5369 8.54122 12.6851 7.80367 12.9834 7.11747Z" fill="#2A72C7"/>
<path d="M61.6139 7.11747C61.9122 6.43191 62.3138 5.83602 62.8193 5.33047C63.3255 4.82491 63.9208 4.42332 64.6063 4.12505C65.2925 3.82744 66.0301 3.67798 66.8196 3.67798C67.6091 3.67798 68.3473 3.82679 69.0329 4.12505C69.7184 4.42332 70.3182 4.82491 70.8303 5.33047C71.343 5.83602 71.7485 6.43191 72.0461 7.11747C72.3437 7.80302 72.4925 8.54057 72.4925 9.33075H70.083C70.083 8.88757 69.9966 8.46844 69.8224 8.07335C69.6483 7.67826 69.4163 7.33581 69.1239 7.04469C68.8321 6.75357 68.4883 6.52158 68.0919 6.34873C67.6956 6.17588 67.2751 6.0888 66.83 6.0888C66.3855 6.0888 65.9651 6.17523 65.5693 6.34873C65.173 6.52223 64.8292 6.75422 64.5374 7.04469C64.2457 7.33581 64.0124 7.67826 63.8389 8.07335C63.6647 8.46844 63.5783 8.88757 63.5783 9.33075V13.9653V14.5475H61.1675V9.3314C61.1675 8.54122 61.3163 7.80367 61.6139 7.11747Z" fill="#2A72C7"/>
<path d="M77.0405 4.15625H74.5881V16.2916H77.0405V4.15625Z" fill="#2A72C7"/>
<path d="M76.2796 16.291H74.5887H73.3833H70.9309C70.9309 16.7068 71.0037 17.1013 71.1492 17.4756C71.2948 17.8499 71.5027 18.1748 71.7724 18.4522C72.0427 18.7291 72.3651 18.9474 72.7393 19.1066C73.113 19.2658 73.5289 19.3457 73.9863 19.3457C74.4159 19.3457 74.8175 19.2801 75.1918 19.1482C75.5661 19.0163 75.8877 18.8187 76.158 18.5562C76.4284 18.293 76.6428 17.9707 76.802 17.5899C76.9612 17.2085 77.0411 16.7757 77.0411 16.291H76.2796Z" fill="#2A72C7"/>
<path d="M66.8708 10.8201C67.314 10.8201 67.6811 10.6746 67.9722 10.3835C68.2634 10.093 68.4089 9.7395 68.4089 9.32361C68.4089 8.88044 68.2634 8.51329 67.9722 8.22217C67.6818 7.93105 67.3146 7.78549 66.8708 7.78549C66.4549 7.78549 66.1021 7.93105 65.8109 8.22217C65.5198 8.51329 65.3743 8.88044 65.3743 9.32361C65.3743 9.7395 65.5198 10.0923 65.8109 10.3835C66.1014 10.6746 66.4549 10.8201 66.8708 10.8201Z" fill="#F05E00"/>
<path d="M84.3113 10.8201C84.7545 10.8201 85.1217 10.6746 85.4128 10.3835C85.7039 10.093 85.8495 9.7395 85.8495 9.32361C85.8495 8.88044 85.7039 8.51329 85.4128 8.22217C85.1223 7.93105 84.7552 7.78549 84.3113 7.78549C83.8955 7.78549 83.5426 7.93105 83.2515 8.22217C82.9604 8.51329 82.8148 8.88044 82.8148 9.32361C82.8148 9.7395 82.9604 10.0923 83.2515 10.3835C83.5426 10.6746 83.8961 10.8201 84.3113 10.8201Z" fill="#F05E00"/>
<path d="M71.1734 23.4468C70.2825 23.0705 69.5105 22.5448 68.8801 21.8833C68.2446 21.2166 67.7514 20.4648 67.4142 19.6499C67.0762 18.8344 66.9008 17.9565 66.8917 17.0402C66.8839 16.2871 67.01 15.5326 67.2653 14.7899L69.2791 15.6398C69.1414 16.0947 69.0751 16.5613 69.0822 17.0324C69.092 17.6627 69.2122 18.2651 69.4403 18.8233C69.6684 19.3822 70.0037 19.8975 70.4378 20.3549C70.877 20.8176 71.4053 21.1815 72.0071 21.4356C72.6088 21.6897 73.2372 21.8144 73.8746 21.8066C74.5056 21.7982 75.1086 21.6799 75.6681 21.4531C76.2289 21.2263 76.7455 20.8923 77.2017 20.4602C77.4701 20.2068 77.7073 19.9176 77.91 19.5972L79.9394 20.4537C79.608 21.0509 79.2006 21.5818 78.7242 22.036C78.0588 22.6696 77.3102 23.1582 76.4993 23.4884C75.6876 23.8178 74.8104 23.9894 73.8922 23.9991C72.9792 24.0089 72.0643 23.8224 71.1734 23.4468Z" fill="#F05E00"/>
<line x1="103.495" y1="9.69692" x2="98.6331" y2="14.559" stroke="black" stroke-opacity="0.5" stroke-width="0.361896" stroke-dasharray="2.27 0.57"/>
<line x1="103.239" y1="14.559" x2="98.3772" y2="9.6969" stroke="black" stroke-opacity="0.5" stroke-width="0.361896" stroke-dasharray="2.27 0.57"/>
<g clip-path="url(#clip0_190_3581)">
<path d="M127.837 11.0586H119.822V12.8652H127.837V11.0586Z" fill="#FF6A00"/>
<path d="M131.852 4.49979H126.549L127.828 6.31041L131.695 7.51749C132.036 7.62528 132.334 7.83988 132.544 8.12965C132.754 8.41943 132.866 8.76903 132.862 9.12693V14.8968C132.864 15.2544 132.752 15.6034 132.543 15.8929C132.333 16.1824 132.036 16.3973 131.695 16.5062L127.828 17.6892L126.549 19.4998H131.852C132.38 19.5003 132.902 19.3965 133.389 19.1942C133.877 18.992 134.319 18.6953 134.691 18.3213C135.063 17.9473 135.358 17.5033 135.558 17.0151C135.758 16.5268 135.859 16.0038 135.856 15.4762V8.52339C135.856 7.45974 135.434 6.43936 134.684 5.68536C133.934 4.93137 132.916 4.5051 131.852 4.49979Z" fill="#FF6A00"/>
<path d="M115.822 4.5H121.109L119.845 6.31062L115.979 7.5177C115.637 7.62534 115.339 7.83978 115.128 8.12949C114.917 8.4192 114.805 8.76889 114.808 9.12715V14.897C114.806 15.2549 114.919 15.604 115.13 15.8935C115.34 16.183 115.638 16.3977 115.979 16.5064L119.845 17.6894L121.125 19.5H115.822C114.755 19.5 113.731 19.0761 112.977 18.3215C112.222 17.5669 111.798 16.5435 111.798 15.4764V8.52361C111.798 7.45648 112.222 6.43306 112.977 5.67849C113.731 4.92391 114.755 4.5 115.822 4.5Z" fill="#FF6A00"/>
<path d="M200.796 14.9614C200.771 15.5747 200.51 16.1544 200.067 16.5793C199.624 17.0043 199.034 17.2416 198.42 17.2416C197.807 17.2416 197.217 17.0043 196.774 16.5793C196.331 16.1544 196.07 15.5747 196.045 14.9614V9.23987C196.07 8.62665 196.331 8.04694 196.774 7.62197C197.217 7.19701 197.807 6.95972 198.42 6.95972C199.034 6.95972 199.624 7.19701 200.067 7.62197C200.51 8.04694 200.771 8.62665 200.796 9.23987V9.32839H202.615V9.25999C202.581 8.17 202.125 7.13595 201.342 6.37687C200.559 5.61779 199.511 5.1933 198.42 5.1933C197.33 5.1933 196.282 5.61779 195.499 6.37687C194.716 7.13595 194.26 8.17 194.226 9.25999V14.9614C194.226 16.0734 194.668 17.1398 195.454 17.9261C196.24 18.7123 197.306 19.154 198.418 19.154C199.53 19.154 200.597 18.7123 201.383 17.9261C202.169 17.1398 202.611 16.0734 202.611 14.9614V14.885H200.792L200.796 14.9614Z" fill="#FF6A00"/>
<path d="M210.244 8.80137C209.318 8.79179 208.425 9.14015 207.75 9.7737C207.075 10.4073 206.671 11.277 206.623 12.2013V15.7139C206.712 16.6072 207.131 17.4354 207.796 18.0377C208.462 18.64 209.328 18.9735 210.226 18.9735C211.123 18.9735 211.989 18.64 212.655 18.0377C213.321 17.4354 213.739 16.6072 213.829 15.7139V12.1973C213.781 11.2793 213.383 10.4147 212.715 9.78257C212.048 9.15042 211.163 8.79911 210.244 8.80137ZM212.026 15.5087C212.026 15.9815 211.838 16.4348 211.504 16.7691C211.17 17.1034 210.717 17.2912 210.244 17.2912C209.771 17.2912 209.318 17.1034 208.983 16.7691C208.649 16.4348 208.461 15.9815 208.461 15.5087V12.4065C208.461 11.9338 208.649 11.4804 208.983 11.1461C209.318 10.8119 209.771 10.6241 210.244 10.6241C210.717 10.6241 211.17 10.8119 211.504 11.1461C211.838 11.4804 212.026 11.9338 212.026 12.4065V15.5087Z" fill="#FF6A00"/>
<path d="M205.327 5.09546H203.517V18.8884H205.327V5.09546Z" fill="#FF6A00"/>
<path d="M155.378 8.80118H153.568V18.8884H155.378V8.80118Z" fill="#FF6A00"/>
<path d="M151.757 5.09546H149.946V18.8884H151.757V5.09546Z" fill="#FF6A00"/>
<path d="M145.376 5.09546H143.142L139.481 18.8683H141.288L142.261 15.2068H146.285L147.255 18.828H149.061L145.376 5.10351V5.09546ZM145.778 13.4324H142.736L144.257 7.71885L145.778 13.4324Z" fill="#FF6A00"/>
<path d="M220.544 15.6976C220.544 16.1714 220.356 16.6258 220.021 16.9609C219.686 17.2959 219.232 17.4841 218.758 17.4841C218.284 17.4841 217.83 17.2959 217.495 16.9609C217.16 16.6258 216.972 16.1714 216.972 15.6976V8.80118H215.157V15.9954C215.156 16.4853 215.27 16.9685 215.49 17.4062C215.71 17.8438 216.03 18.2234 216.424 18.5145C216.818 18.8055 217.275 18.9997 217.758 19.0815C218.241 19.1632 218.737 19.1301 219.205 18.9849C219.378 18.9347 219.545 18.8659 219.704 18.7797C219.98 18.6375 220.234 18.4543 220.456 18.2365L220.536 18.1601V18.9004H222.363V8.80118H220.544V15.6976Z" fill="#FF6A00"/>
<path d="M155.378 5.09546H153.568V6.9101H155.378V5.09546Z" fill="#FF6A00"/>
<path d="M161.26 8.78913C160.444 8.78886 159.661 9.10972 159.08 9.68237L159.003 9.75882V5.09546H157.188V18.8884H159.003V18.148L159.08 18.2245C159.519 18.6532 160.075 18.943 160.678 19.0575C161.281 19.172 161.904 19.1062 162.47 18.8684C163.036 18.6305 163.519 18.2311 163.859 17.7201C164.2 17.2092 164.382 16.6092 164.383 15.9954V11.9114C164.382 11.0837 164.052 10.2901 163.467 9.70481C162.882 9.11949 162.088 8.79019 161.26 8.78913ZM162.592 12.2414V15.6655C162.592 16.1403 162.404 16.5958 162.068 16.9315C161.732 17.2673 161.277 17.456 160.802 17.456C160.327 17.456 159.871 17.2673 159.536 16.9315C159.2 16.5958 159.011 16.1403 159.011 15.6655V12.2414C159.011 11.7665 159.2 11.3111 159.536 10.9753C159.871 10.6395 160.327 10.4509 160.802 10.4509C161.277 10.4509 161.732 10.6395 162.068 10.9753C162.404 11.3111 162.592 11.7665 162.592 12.2414Z" fill="#FF6A00"/>
<path d="M178.144 8.78913C177.326 8.7878 176.541 9.10874 175.959 9.68237L175.882 9.75882V5.09546H174.072V18.8884H175.882V18.148L175.959 18.2245C176.398 18.6532 176.954 18.943 177.557 19.0575C178.16 19.172 178.784 19.1062 179.349 18.8684C179.915 18.6305 180.399 18.2311 180.739 17.7201C181.079 17.2092 181.261 16.6092 181.262 15.9954V11.9114C181.261 11.0844 180.932 10.2914 180.348 9.70623C179.763 9.12103 178.971 8.79126 178.144 8.78913ZM179.471 12.2414V15.6614C179.471 16.1363 179.283 16.5917 178.947 16.9275C178.611 17.2633 178.156 17.452 177.681 17.452C177.206 17.452 176.751 17.2633 176.415 16.9275C176.079 16.5917 175.89 16.1363 175.89 15.6614V12.2414C175.89 11.7665 176.079 11.3111 176.415 10.9753C176.751 10.6395 177.206 10.4509 177.681 10.4509C178.156 10.4509 178.611 10.6395 178.947 10.9753C179.283 11.3111 179.471 11.7665 179.471 12.2414Z" fill="#FF6A00"/>
<path d="M229.054 5.09546V9.75882L228.978 9.68237C228.539 9.2517 227.983 8.96025 227.379 8.84465C226.775 8.72905 226.151 8.79445 225.584 9.03263C225.018 9.27082 224.534 9.67116 224.194 10.1834C223.854 10.6956 223.674 11.2968 223.674 11.9114V16.0075C223.678 16.6203 223.862 17.2185 224.203 17.7277C224.544 18.2368 225.027 18.6344 225.592 18.8707C226.158 19.1071 226.78 19.1719 227.382 19.057C227.984 18.942 228.539 18.6525 228.978 18.2245L229.054 18.148V18.8884H230.869V5.09546H229.054ZM229.054 12.2414V15.6614C229.054 15.8966 229.008 16.1294 228.918 16.3466C228.828 16.5639 228.696 16.7613 228.53 16.9275C228.363 17.0938 228.166 17.2257 227.949 17.3157C227.731 17.4056 227.499 17.452 227.264 17.452C227.028 17.452 226.796 17.4056 226.578 17.3157C226.361 17.2257 226.164 17.0938 225.997 16.9275C225.831 16.7613 225.699 16.5639 225.609 16.3466C225.519 16.1294 225.473 15.8966 225.473 15.6614V12.2414C225.473 12.0063 225.519 11.7734 225.609 11.5562C225.699 11.339 225.831 11.1416 225.997 10.9753C226.164 10.809 226.361 10.6772 226.578 10.5872C226.796 10.4972 227.028 10.4509 227.264 10.4509C227.499 10.4509 227.731 10.4972 227.949 10.5872C228.166 10.6772 228.363 10.809 228.53 10.9753C228.696 11.1416 228.828 11.339 228.918 11.5562C229.008 11.7734 229.054 12.0063 229.054 12.2414Z" fill="#FF6A00"/>
<path d="M172.768 12.2133C172.763 12.0947 172.751 11.9765 172.732 11.8592V11.811C172.641 11.2668 172.429 10.7499 172.112 10.2981C171.806 9.86103 171.404 9.49898 170.938 9.23906C170.472 8.97915 169.953 8.82812 169.42 8.79728H169.211C168.367 8.79557 167.548 9.089 166.897 9.62681C166.246 10.1646 165.804 10.913 165.646 11.7426H167.425C167.505 11.3367 167.723 10.971 168.042 10.7076C168.361 10.4443 168.761 10.2996 169.175 10.2981C169.634 10.3039 170.074 10.4857 170.403 10.8061C170.733 11.1265 170.927 11.5611 170.945 12.0202V12.8651H168.374C167.614 12.8604 166.878 13.1335 166.306 13.6331C165.733 14.1326 165.362 14.8242 165.263 15.5779C165.164 16.3316 165.344 17.0954 165.769 17.7258C166.194 18.3561 166.834 18.8097 167.569 19.0011H167.618L167.791 19.0414L168.008 19.0736H168.052C168.209 19.09 168.366 19.0981 168.523 19.0977C168.893 19.1047 169.261 19.0517 169.613 18.9408C170.079 18.7946 170.502 18.5394 170.849 18.1964L170.929 18.12V18.8603H172.74V17.6532L172.768 12.2133ZM168.72 14.2251H170.945V15.5006C170.946 15.9709 170.781 16.4264 170.481 16.7881C170.18 17.1497 169.762 17.3946 169.3 17.4802C169.168 17.5114 169.033 17.5276 168.897 17.5285C168.574 17.5257 168.257 17.4368 167.98 17.271C167.899 17.227 167.821 17.1773 167.747 17.1221C167.644 17.0399 167.551 16.9468 167.469 16.8445L167.449 16.8203C167.264 16.5816 167.15 16.2957 167.12 15.9952C167.089 15.6947 167.144 15.3917 167.278 15.121C167.412 14.8503 167.62 14.6227 167.877 14.4643C168.134 14.3059 168.43 14.223 168.732 14.2251H168.72Z" fill="#FF6A00"/>
<path d="M189.671 12.2212C189.666 12.1026 189.654 11.9844 189.635 11.8671V11.8189C189.544 11.276 189.332 10.7604 189.015 10.31C188.708 9.87346 188.307 9.51157 187.841 9.25109C187.375 8.99061 186.856 8.83822 186.323 8.80519H186.114C185.271 8.80312 184.453 9.09541 183.803 9.63162C183.152 10.1678 182.709 10.9144 182.549 11.7424H184.324C184.405 11.3113 184.643 10.9255 184.992 10.6589C185.34 10.3923 185.775 10.2636 186.213 10.2975C186.65 10.3313 187.06 10.5254 187.363 10.8425C187.666 11.1596 187.842 11.5775 187.856 12.016V12.861H185.281C184.523 12.8612 183.791 13.1378 183.222 13.639C182.652 14.1402 182.285 14.8315 182.189 15.5838C182.093 16.336 182.274 17.0975 182.699 17.7257C183.124 18.354 183.763 18.8059 184.497 18.997H184.545L184.718 19.0372L184.935 19.0694H184.98C185.136 19.0873 185.293 19.0967 185.45 19.0976C185.82 19.1045 186.188 19.0515 186.541 18.9406C187.004 18.7912 187.427 18.5365 187.776 18.1963L187.856 18.1198V18.8602H189.667V17.6531L189.671 12.2212ZM185.623 14.233H187.844V15.5246C187.845 15.9949 187.68 16.4504 187.38 16.8121C187.079 17.1737 186.661 17.4186 186.199 17.5042C186.067 17.5354 185.932 17.5516 185.796 17.5525C185.473 17.5497 185.156 17.4608 184.879 17.295C184.797 17.2525 184.719 17.2027 184.646 17.1461C184.542 17.064 184.448 16.9709 184.364 16.8685V16.8443C184.147 16.566 184.03 16.2233 184.03 15.8706C184.027 15.4445 184.193 15.0344 184.491 14.7305C184.79 14.4265 185.197 14.2534 185.623 14.2491V14.233Z" fill="#FF6A00"/>
</g>
<line x1="243.244" y1="4.5" x2="243.244" y2="19.5" stroke="#263444" stroke-width="0.75"/>
<g clip-path="url(#clip1_190_3581)">
<path fill-rule="evenodd" clip-rule="evenodd" d="M295.458 4.50003V19.4496H302.352L303.407 16.2598L298.733 16.7801V7.16964L303.415 7.69068L302.352 4.50003H295.458Z" fill="#181818"/>
<path fill-rule="evenodd" clip-rule="evenodd" d="M304.518 11.0011C304.72 11.6251 304.718 12.2971 304.512 12.9202L303.407 16.2598L302.352 19.4497H304.277H304.366C305.255 19.4497 306.043 18.8782 306.32 18.033L306.588 17.2156L304.518 11.0011Z" fill="#73D13D"/>
<path fill-rule="evenodd" clip-rule="evenodd" d="M307.818 10.3865L306.879 7.56652L306.325 5.90627C306.045 5.06647 305.259 4.50006 304.374 4.50006H304.277H302.352L303.415 7.69071L304.51 10.9754C304.513 10.9839 304.515 10.9926 304.518 11.0012L306.588 17.2157L306.879 16.3283L307.818 13.5085C308.156 12.4952 308.156 11.3998 307.818 10.3865Z" fill="#FF6A00"/>
<path fill-rule="evenodd" clip-rule="evenodd" d="M330.976 4.5L328.872 10.9972L326.793 4.5H322.219V19.5H325.382V15.7809V9.02269L325.444 9.01236L327.528 15.1044H327.704H330.213L332.346 8.91973L332.408 8.92991V15.7809V19.5H335.571V4.5H330.976Z" fill="#181818"/>
<mask id="mask0_190_3581" style="mask-type:luminance" maskUnits="userSpaceOnUse" x="254" y="4" width="15" height="16">
<path d="M254.869 4.5H268.258V19.4497H254.869V4.5Z" fill="white"/>
</mask>
<g mask="url(#mask0_190_3581)">
<path fill-rule="evenodd" clip-rule="evenodd" d="M259.972 13.8743H263.144L261.584 8.52492H261.522L259.972 13.8743ZM263.915 16.5439H259.202L258.36 19.4497H254.869L259.695 4.5H263.422L268.258 19.4497H264.767L263.915 16.5439Z" fill="#181818"/>
</g>
<path fill-rule="evenodd" clip-rule="evenodd" d="M319.103 13.0529H313.035V16.7801H319.122L320.15 19.4496H309.554V4.50006H320.171L319.142 7.16952H313.035V10.3834H319.103V13.0529Z" fill="#181818"/>
<mask id="mask1_190_3581" style="mask-type:luminance" maskUnits="userSpaceOnUse" x="336" y="4" width="15" height="16">
<path d="M336.95 4.5H350.472V19.4495H336.95V4.5Z" fill="white"/>
</mask>
<g mask="url(#mask1_190_3581)">
<path fill-rule="evenodd" clip-rule="evenodd" d="M343.665 11.0302H343.727L346.704 4.5H350.472L345.39 14.0181V19.4495H341.93V14.0181L336.95 4.5H340.698L343.665 11.0302Z" fill="#181818"/>
</g>
<path fill-rule="evenodd" clip-rule="evenodd" d="M289.153 4.5H289.11L287.53 9.26015L288.876 13.8743H285.997L285.11 16.5439H289.646L290.498 19.4497H293.989L289.153 4.5Z" fill="#181818"/>
<path fill-rule="evenodd" clip-rule="evenodd" d="M288.346 4.5H285.606L280.641 19.4497H284.145L285.11 16.5439L285.997 13.8743L287.529 9.26015L289.11 4.5H288.346Z" fill="#FF5100"/>
<path fill-rule="evenodd" clip-rule="evenodd" d="M279.473 4.5H273.917L272.746 8.04038L278.596 7.1286L279.473 4.5Z" fill="#181818"/>
<path fill-rule="evenodd" clip-rule="evenodd" d="M271.903 4.5C271.014 4.5 270.225 5.0715 269.949 5.91667L269.681 6.73393L271.751 12.9486C271.549 12.3247 271.55 11.6526 271.757 11.0295L272.746 8.04038L273.917 4.5H271.903Z" fill="#73D13D"/>
<path fill-rule="evenodd" clip-rule="evenodd" d="M279.473 19.4496L278.596 16.8212L272.737 15.908L273.917 19.4496H271.998H279.473Z" fill="#181818"/>
<path fill-rule="evenodd" clip-rule="evenodd" d="M272.737 15.9079L271.759 12.9742C271.756 12.9657 271.754 12.957 271.751 12.9484L269.681 6.73395L269.39 7.6213L268.45 10.4413C268.113 11.4544 268.113 12.5498 268.45 13.5631L269.39 16.3831L269.944 18.0434C270.224 18.8831 271.01 19.4496 271.895 19.4496H271.998H273.917L272.737 15.9079Z" fill="#FF6A00"/>
</g>
<defs>
<clipPath id="clip0_190_3581">
<rect width="119.071" height="15" fill="white" transform="translate(111.798 4.5)"/>
</clipPath>
<clipPath id="clip1_190_3581">
<rect width="96" height="15" fill="white" transform="translate(254.869 4.5)"/>
</clipPath>
</defs>
</svg>
