<svg width="308" height="32" viewBox="0 0 308 32" fill="none" xmlns="http://www.w3.org/2000/svg">
<path d="M0 12.4687C0 11.3978 0.194079 10.4049 0.581371 9.48996C0.969529 8.57588 1.50498 7.78137 2.18859 7.10729C2.8722 6.43322 3.67191 5.9021 4.58598 5.51394C5.50006 5.12578 6.48432 4.9317 7.53703 4.9317C8.58973 4.9317 9.57312 5.13011 10.4881 5.5278C11.403 5.92549 12.1967 6.46094 12.8707 7.13502C13.5448 7.8091 14.0803 8.60361 14.478 9.51769C14.8748 10.4318 15.0741 11.416 15.0741 12.4687C15.0741 13.5214 14.8756 14.5048 14.478 15.4198C14.0803 16.3338 13.5448 17.1284 12.8707 17.8024C12.1958 18.4765 11.4021 19.0128 10.4881 19.4097C9.57399 19.8065 8.5906 20.0058 7.53703 20.0058C6.74252 20.0058 5.94367 19.8437 5.13963 19.5206C4.33645 19.1974 3.69443 18.8144 3.21357 18.3708V28.1883H0V12.4687ZM3.21443 12.4687C3.21443 13.0605 3.32967 13.6185 3.561 14.1453C3.79147 14.672 4.10165 15.1286 4.48894 15.5168C4.8771 15.905 5.33458 16.2143 5.86049 16.4448C6.38728 16.6761 6.94526 16.7913 7.53703 16.7913C8.12793 16.7913 8.68677 16.6761 9.21269 16.4448C9.73948 16.2143 10.1969 15.9041 10.5842 15.5168C10.9715 15.1286 11.2817 14.672 11.5122 14.1453C11.7427 13.6185 11.8588 13.0605 11.8588 12.4687C11.8588 11.8778 11.7427 11.319 11.5122 10.7922C11.2808 10.2654 10.9715 9.80881 10.5842 9.42065C10.1969 9.03249 9.73861 8.72318 9.21269 8.49271C8.68591 8.26224 8.12706 8.14614 7.53703 8.14614C6.94526 8.14614 6.38728 8.26137 5.86049 8.49271C5.33371 8.72404 4.8771 9.03336 4.48894 9.42065C4.10165 9.80881 3.79147 10.2654 3.561 10.7922C3.32967 11.319 3.21443 11.8778 3.21443 12.4687Z" fill="#2A72C7"/>
<path d="M33.7117 12.441C33.7117 11.3883 33.9101 10.4049 34.3069 9.48998C34.7037 8.5759 35.2444 7.78139 35.928 7.10731C36.6107 6.43323 37.4104 5.89778 38.3245 5.50009C39.2395 5.10327 40.2229 4.90399 41.2756 4.90399C42.3283 4.90399 43.3125 5.1024 44.2266 5.50009C45.1407 5.89778 45.9352 6.43323 46.6093 7.10731C47.2833 7.78139 47.8188 8.5759 48.2165 9.48998C48.6133 10.4041 48.8117 11.3883 48.8117 12.441V19.3958H45.5973V18.6195C44.341 19.5249 42.9001 19.9772 41.2747 19.9772C40.1293 19.9772 39.0896 19.7831 38.1573 19.3958C37.2242 19.0076 36.4296 18.4722 35.7746 17.7886C35.1187 17.105 34.611 16.3061 34.2506 15.3921C33.891 14.478 33.7117 13.4946 33.7117 12.441ZM36.9252 12.441C36.9252 13.0328 37.0405 13.5908 37.2727 14.1175C37.504 14.6443 37.8142 15.1018 38.2041 15.4891C38.5931 15.8773 39.0514 16.1866 39.58 16.417C40.1085 16.6484 40.6691 16.7636 41.2626 16.7636C41.8552 16.7636 42.4158 16.6579 42.9434 16.4448C43.4719 16.2325 43.9303 15.9318 44.3193 15.5445C44.7083 15.1564 45.0194 14.6998 45.2507 14.173C45.482 13.6462 45.5981 13.0692 45.5981 12.441C45.5981 11.8501 45.482 11.2913 45.2507 10.7645C45.0194 10.2377 44.7092 9.78109 44.3193 9.39294C43.9303 9.00478 43.4719 8.69546 42.9434 8.465C42.4149 8.23453 41.8552 8.11843 41.2626 8.11843C40.6691 8.11843 40.1085 8.23366 39.58 8.465C39.0514 8.69633 38.5931 9.00564 38.2041 9.39294C37.8151 9.78109 37.5049 10.2377 37.2727 10.7645C37.0413 11.2913 36.9252 11.8501 36.9252 12.441Z" fill="#2A72C7"/>
<path d="M54.3377 10.4188L59.408 5.54165H63.7306L57.6622 11.4437L63.7306 19.3966H59.5467L55.2518 13.7718L54.3654 14.6304V19.3966H51.1233V0H54.3377V10.4188Z" fill="#2A72C7"/>
<path d="M67.8003 12.6628C67.8185 13.2355 67.9476 13.771 68.1876 14.27C68.4276 14.7682 68.7421 15.2032 69.1302 15.5723C69.5175 15.9422 69.9707 16.2333 70.4879 16.4456C71.0052 16.6579 71.5493 16.7644 72.1229 16.7644C73.0829 16.7644 73.9051 16.5288 74.5887 16.0583C75.2723 15.587 75.7714 14.9545 76.085 14.16H79.6036C79.2891 15.2127 78.8732 16.1094 78.3568 16.8476C77.8395 17.5867 77.2486 18.1871 76.5841 18.6489C75.9187 19.1107 75.2073 19.4478 74.4501 19.66C73.6928 19.8723 72.9165 19.9789 72.122 19.9789C71.0693 19.9789 70.0859 19.7805 69.1709 19.3837C68.2569 18.9868 67.4606 18.4514 66.7831 17.7764C66.1047 17.1024 65.5692 16.3078 65.1759 15.3938C64.7816 14.4797 64.585 13.4954 64.585 12.4427C64.585 11.39 64.7816 10.4066 65.1759 9.49168C65.5692 8.57761 66.1047 7.7831 66.7831 7.10902C67.4598 6.43494 68.2569 5.89949 69.1709 5.5018C70.0859 5.10498 71.0693 4.9057 72.122 4.9057C73.2856 4.9057 74.3288 5.11797 75.2532 5.54339C76.1769 5.9688 76.9618 6.53631 77.6082 7.24765C78.2537 7.95898 78.7579 8.78555 79.1184 9.72735C79.4788 10.6692 79.6677 11.6491 79.6859 12.6645H67.8003V12.6628ZM76.085 10.5011C75.8078 9.72475 75.3182 9.0654 74.6164 8.51956C73.9146 7.97544 73.0932 7.70252 72.1506 7.70252C71.2088 7.70252 70.3865 7.97544 69.6847 8.51956C68.9821 9.06454 68.4925 9.72475 68.2161 10.5011H76.085Z" fill="#2A72C7"/>
<path d="M104.893 12.441C104.893 11.3883 105.091 10.4049 105.488 9.48998C105.885 8.5759 106.426 7.78139 107.109 7.10731C107.792 6.43323 108.592 5.89778 109.506 5.50009C110.421 5.10327 111.404 4.90399 112.457 4.90399C113.509 4.90399 114.494 5.1024 115.408 5.50009C116.322 5.89778 117.116 6.43323 117.79 7.10731C118.464 7.78139 119 8.5759 119.398 9.48998C119.794 10.4041 119.993 11.3883 119.993 12.441V19.3958H116.778V18.6195C115.522 19.5249 114.081 19.9772 112.456 19.9772C111.31 19.9772 110.271 19.7831 109.338 19.3958C108.405 19.0076 107.611 18.4722 106.956 17.7886C106.3 17.105 105.792 16.3061 105.432 15.3921C105.072 14.478 104.893 13.4946 104.893 12.441ZM108.106 12.441C108.106 13.0328 108.222 13.5908 108.454 14.1175C108.686 14.6443 108.995 15.1018 109.385 15.4891C109.775 15.8764 110.233 16.1866 110.761 16.417C111.29 16.6484 111.85 16.7636 112.444 16.7636C113.036 16.7636 113.597 16.6579 114.125 16.4448C114.653 16.2325 115.111 15.9318 115.5 15.5445C115.889 15.1564 116.201 14.6998 116.432 14.173C116.664 13.6462 116.779 13.0692 116.779 12.441C116.779 11.8501 116.663 11.2913 116.432 10.7645C116.201 10.2377 115.89 9.78109 115.5 9.39294C115.111 9.00478 114.653 8.69546 114.125 8.465C113.596 8.23453 113.036 8.11843 112.444 8.11843C111.85 8.11843 111.29 8.23366 110.761 8.465C110.233 8.69633 109.774 9.00564 109.385 9.39294C108.996 9.78109 108.686 10.2377 108.454 10.7645C108.222 11.2913 108.106 11.8501 108.106 12.441Z" fill="#2A72C7"/>
<path d="M17.3111 9.48998C17.7088 8.5759 18.2442 7.78139 18.9183 7.10731C19.5932 6.43323 20.3869 5.89778 21.301 5.50009C22.2159 5.10327 23.1993 4.90399 24.252 4.90399C25.3047 4.90399 26.289 5.1024 27.203 5.50009C28.1171 5.89778 28.9168 6.43323 29.5996 7.10731C30.2832 7.78139 30.8238 8.5759 31.2207 9.48998C31.6175 10.4041 31.8159 11.3874 31.8159 12.441H28.6015C28.6015 11.8501 28.4862 11.2913 28.254 10.7645C28.0218 10.2377 27.7125 9.78109 27.3226 9.39294C26.9336 9.00478 26.4752 8.69546 25.9467 8.465C25.4182 8.23453 24.8576 8.11843 24.2641 8.11843C23.6715 8.11843 23.1109 8.23366 22.5833 8.465C22.0548 8.69633 21.5964 9.00564 21.2074 9.39294C20.8175 9.78109 20.5073 10.2377 20.276 10.7645C20.0438 11.2913 19.9285 11.8501 19.9285 12.441V18.6204V19.3967H16.7141V12.4419C16.7158 11.3883 16.9134 10.4049 17.3111 9.48998Z" fill="#2A72C7"/>
<path d="M82.1516 9.48998C82.5493 8.5759 83.0848 7.78139 83.7588 7.10731C84.4338 6.43323 85.2274 5.89778 86.1415 5.50009C87.0565 5.10327 88.0398 4.90399 89.0926 4.90399C90.1453 4.90399 91.1295 5.1024 92.0436 5.50009C92.9577 5.89778 93.7574 6.43323 94.4401 7.10731C95.1237 7.78139 95.6644 8.5759 96.0612 9.48998C96.458 10.4041 96.6564 11.3874 96.6564 12.441H93.4437C93.4437 11.8501 93.3285 11.2913 93.0963 10.7645C92.8641 10.2377 92.5548 9.78109 92.1649 9.39294C91.7759 9.00478 91.3175 8.69546 90.789 8.465C90.2605 8.23453 89.6999 8.11843 89.1064 8.11843C88.5138 8.11843 87.9532 8.23366 87.4256 8.465C86.897 8.69633 86.4387 9.00564 86.0497 9.39294C85.6606 9.78109 85.3496 10.2377 85.1183 10.7645C84.8861 11.2913 84.7708 11.8501 84.7708 12.441V18.6204V19.3967H81.5564V12.4419C81.5564 11.3883 81.7548 10.4049 82.1516 9.48998Z" fill="#2A72C7"/>
<path d="M102.721 5.54163H99.4507V21.7221H102.721V5.54163Z" fill="#2A72C7"/>
<path d="M101.706 21.7213H99.4516H97.8443H94.5745C94.5745 22.2758 94.6715 22.8017 94.8656 23.3007C95.0597 23.7998 95.3369 24.233 95.6965 24.603C96.0569 24.9721 96.4867 25.2632 96.9857 25.4755C97.4839 25.6877 98.0384 25.7943 98.6484 25.7943C99.2211 25.7943 99.7565 25.7068 100.256 25.5309C100.755 25.355 101.184 25.0916 101.544 24.7416C101.904 24.3907 102.19 23.961 102.403 23.4532C102.615 22.9446 102.721 22.3676 102.721 21.7213H101.706Z" fill="#2A72C7"/>
<path d="M89.1611 14.4268C89.752 14.4268 90.2416 14.2327 90.6297 13.8446C91.0179 13.4573 91.212 12.986 91.212 12.4314C91.212 11.8405 91.0179 11.351 90.6297 10.9629C90.2424 10.5747 89.7529 10.3806 89.1611 10.3806C88.6066 10.3806 88.1362 10.5747 87.748 10.9629C87.3598 11.351 87.1658 11.8405 87.1658 12.4314C87.1658 12.986 87.3598 13.4564 87.748 13.8446C88.1353 14.2327 88.6066 14.4268 89.1611 14.4268Z" fill="#F05E00"/>
<path d="M112.415 14.4268C113.006 14.4268 113.495 14.2327 113.884 13.8446C114.272 13.4573 114.466 12.986 114.466 12.4314C114.466 11.8405 114.272 11.351 113.884 10.9629C113.496 10.5747 113.007 10.3806 112.415 10.3806C111.861 10.3806 111.39 10.5747 111.002 10.9629C110.614 11.351 110.42 11.8405 110.42 12.4314C110.42 12.986 110.614 13.4564 111.002 13.8446C111.39 14.2327 111.861 14.4268 112.415 14.4268Z" fill="#F05E00"/>
<path d="M94.8978 31.2624C93.7099 30.7607 92.6806 30.0598 91.8402 29.1777C90.9928 28.2888 90.3352 27.2863 89.8855 26.1998C89.435 25.1125 89.2011 23.9419 89.1889 22.7203C89.1785 21.7161 89.3466 20.7102 89.6871 19.7198L92.3722 20.8531C92.1885 21.4596 92.1001 22.0817 92.1096 22.7099C92.1226 23.5503 92.2829 24.3535 92.587 25.0977C92.8912 25.8429 93.3382 26.5299 93.917 27.1399C94.5027 27.7568 95.2071 28.242 96.0094 28.5808C96.8117 28.9195 97.6496 29.0859 98.4995 29.0755C99.3408 29.0642 100.145 28.9065 100.891 28.6042C101.639 28.3018 102.327 27.8564 102.936 27.2803C103.293 26.9424 103.61 26.5568 103.88 26.1297L106.586 27.2716C106.144 28.0678 105.601 28.7757 104.966 29.3813C104.078 30.2261 103.08 30.8777 101.999 31.3178C100.917 31.7571 99.7472 31.9858 98.5229 31.9988C97.3056 32.0118 96.0857 31.7631 94.8978 31.2624Z" fill="#F05E00"/>
<line x1="137.994" y1="12.9292" x2="131.511" y2="19.412" stroke="black" stroke-opacity="0.5" stroke-width="0.482528" stroke-dasharray="3.03 0.76"/>
<line x1="137.652" y1="19.412" x2="131.17" y2="12.9292" stroke="black" stroke-opacity="0.5" stroke-width="0.482528" stroke-dasharray="3.03 0.76"/>
<g clip-path="url(#clip0_194_1807)">
<path d="M170.449 14.7448H159.762V17.1536H170.449V14.7448Z" fill="#FF6A00"/>
<path d="M175.803 5.99969H168.732L170.438 8.41386L175.593 10.0233C176.048 10.167 176.445 10.4532 176.725 10.8395C177.005 11.2259 177.154 11.692 177.149 12.1692V19.8624C177.152 20.3392 177.003 20.8045 176.723 21.1905C176.443 21.5766 176.047 21.8631 175.593 22.0083L170.438 23.5855L168.732 25.9997H175.803C176.506 26.0004 177.203 25.8619 177.852 25.5923C178.502 25.3226 179.092 24.927 179.588 24.4283C180.084 23.9297 180.477 23.3378 180.743 22.6867C181.01 22.0357 181.145 21.3383 181.14 20.6349V11.3645C181.141 9.9463 180.579 8.58579 179.579 7.58046C178.578 6.57513 177.221 6.00679 175.803 5.99969Z" fill="#FF6A00"/>
<path d="M154.429 6H161.478L159.794 8.41416L154.638 10.0236C154.183 10.1671 153.785 10.453 153.504 10.8393C153.223 11.2256 153.073 11.6919 153.077 12.1695V19.8627C153.075 20.3399 153.225 20.8054 153.506 21.1913C153.787 21.5773 154.184 21.8636 154.638 22.0086L159.794 23.5858L161.5 26H154.429C153.006 26 151.642 25.4348 150.636 24.4287C149.629 23.4226 149.064 22.058 149.064 20.6352V11.3648C149.064 9.94197 149.629 8.57741 150.636 7.57132C151.642 6.56522 153.006 6 154.429 6Z" fill="#FF6A00"/>
<path d="M267.729 19.9486C267.695 20.7662 267.346 21.5391 266.756 22.1058C266.166 22.6724 265.379 22.9888 264.561 22.9888C263.742 22.9888 262.956 22.6724 262.365 22.1058C261.775 21.5391 261.426 20.7662 261.393 19.9486V12.3198C261.426 11.5022 261.775 10.7292 262.365 10.1626C262.956 9.596 263.742 9.2796 264.561 9.2796C265.379 9.2796 266.166 9.596 266.756 10.1626C267.346 10.7292 267.695 11.5022 267.729 12.3198V12.4378H270.153V12.3466C270.108 10.8933 269.499 9.51458 268.455 8.50248C267.412 7.49037 266.015 6.92438 264.561 6.92438C263.107 6.92438 261.71 7.49037 260.666 8.50248C259.622 9.51458 259.013 10.8933 258.968 12.3466V19.9486C258.968 21.4312 259.557 22.853 260.605 23.9014C261.653 24.9497 263.075 25.5387 264.558 25.5387C266.04 25.5387 267.462 24.9497 268.511 23.9014C269.559 22.853 270.148 21.4312 270.148 19.9486V19.8466H267.723L267.729 19.9486Z" fill="#FF6A00"/>
<path d="M280.325 11.7351C279.091 11.7223 277.9 12.1868 277 13.0316C276.1 13.8763 275.562 15.036 275.497 16.2684V20.9519C275.616 22.1429 276.174 23.2471 277.062 24.0502C277.949 24.8533 279.104 25.298 280.301 25.298C281.498 25.298 282.652 24.8533 283.54 24.0502C284.428 23.2471 284.985 22.1429 285.105 20.9519V16.263C285.042 15.039 284.51 13.8863 283.62 13.0434C282.73 12.2005 281.551 11.7321 280.325 11.7351ZM282.702 20.6783C282.702 21.3086 282.451 21.9131 282.005 22.3588C281.56 22.8045 280.955 23.0549 280.325 23.0549C279.695 23.0549 279.09 22.8045 278.644 22.3588C278.199 21.9131 277.948 21.3086 277.948 20.6783V16.542C277.948 15.9117 278.199 15.3072 278.644 14.8615C279.09 14.4158 279.695 14.1654 280.325 14.1654C280.955 14.1654 281.56 14.4158 282.005 14.8615C282.451 15.3072 282.702 15.9117 282.702 16.542V20.6783Z" fill="#FF6A00"/>
<path d="M273.77 6.79395H271.355V25.1845H273.77V6.79395Z" fill="#FF6A00"/>
<path d="M207.171 11.7349H204.757V25.1844H207.171V11.7349Z" fill="#FF6A00"/>
<path d="M202.342 6.79395H199.928V25.1845H202.342V6.79395Z" fill="#FF6A00"/>
<path d="M193.834 6.79395H190.857L185.975 25.1577H188.383L189.682 20.2757H195.046L196.339 25.104H198.748L193.834 6.80467V6.79395ZM194.371 17.9098H190.315L192.343 10.2918L194.371 17.9098Z" fill="#FF6A00"/>
<path d="M294.059 20.9301C294.059 21.5619 293.808 22.1677 293.362 22.6145C292.915 23.0612 292.309 23.3121 291.677 23.3121C291.045 23.3121 290.44 23.0612 289.993 22.6145C289.546 22.1677 289.295 21.5619 289.295 20.9301V11.7349H286.876V21.3271C286.874 21.9803 287.026 22.6247 287.32 23.2082C287.613 23.7917 288.04 24.2979 288.566 24.6859C289.091 25.074 289.7 25.3329 290.344 25.4419C290.988 25.5509 291.649 25.5068 292.273 25.3132C292.504 25.2463 292.727 25.1545 292.938 25.0396C293.307 24.8499 293.645 24.6058 293.941 24.3153L294.048 24.2134V25.2005H296.484V11.7349H294.059V20.9301Z" fill="#FF6A00"/>
<path d="M207.171 6.79395H204.757V9.21347H207.171V6.79395Z" fill="#FF6A00"/>
<path d="M215.014 11.7188C213.926 11.7185 212.881 12.1463 212.106 12.9098L212.004 13.0118V6.79395H209.584V25.1845H212.004V24.1974L212.106 24.2993C212.692 24.871 213.433 25.2573 214.237 25.41C215.041 25.5627 215.872 25.475 216.627 25.1578C217.381 24.8407 218.026 24.3082 218.479 23.6268C218.933 22.9455 219.175 22.1457 219.177 21.3272V15.8819C219.175 14.7782 218.736 13.7202 217.956 12.9397C217.175 12.1593 216.117 11.7203 215.014 11.7188ZM216.789 16.3218V20.8873C216.789 21.5205 216.538 22.1277 216.09 22.5754C215.642 23.0231 215.035 23.2746 214.402 23.2746C213.769 23.2746 213.162 23.0231 212.714 22.5754C212.266 22.1277 212.015 21.5205 212.015 20.8873V16.3218C212.015 15.6887 212.266 15.0815 212.714 14.6337C213.162 14.186 213.769 13.9345 214.402 13.9345C215.035 13.9345 215.642 14.186 216.09 14.6337C216.538 15.0815 216.789 15.6887 216.789 16.3218Z" fill="#FF6A00"/>
<path d="M237.525 11.7188C236.435 11.7171 235.388 12.145 234.612 12.9098L234.51 13.0118V6.79395H232.095V25.1845H234.51V24.1974L234.612 24.2993C235.197 24.871 235.939 25.2573 236.743 25.41C237.547 25.5627 238.378 25.475 239.132 25.1578C239.887 24.8407 240.531 24.3082 240.985 23.6268C241.438 22.9455 241.681 22.1457 241.682 21.3272V15.8819C241.681 14.7792 241.243 13.7219 240.463 12.9416C239.684 12.1614 238.627 11.7217 237.525 11.7188ZM239.295 16.3218V20.8819C239.295 21.5151 239.044 22.1223 238.596 22.57C238.148 23.0177 237.541 23.2693 236.908 23.2693C236.275 23.2693 235.667 23.0177 235.22 22.57C234.772 22.1223 234.52 21.5151 234.52 20.8819V16.3218C234.52 15.6887 234.772 15.0815 235.22 14.6337C235.667 14.186 236.275 13.9345 236.908 13.9345C237.541 13.9345 238.148 14.186 238.596 14.6337C239.044 15.0815 239.295 15.6887 239.295 16.3218Z" fill="#FF6A00"/>
<path d="M305.405 6.79395V13.0118L305.303 12.9098C304.719 12.3356 303.977 11.947 303.172 11.7929C302.367 11.6387 301.535 11.7259 300.779 12.0435C300.024 12.3611 299.379 12.8949 298.926 13.5778C298.473 14.2607 298.231 15.0624 298.233 15.8819V21.3433C298.237 22.1604 298.482 22.9581 298.937 23.6369C299.392 24.3158 300.036 24.8458 300.79 25.161C301.544 25.4762 302.374 25.5625 303.176 25.4093C303.979 25.2561 304.719 24.87 305.303 24.2993L305.405 24.1974V25.1845H307.825V6.79395H305.405ZM305.405 16.3218V20.8819C305.405 21.1954 305.344 21.5059 305.224 21.7955C305.104 22.0852 304.928 22.3483 304.706 22.57C304.484 22.7917 304.221 22.9676 303.932 23.0875C303.642 23.2075 303.331 23.2693 303.018 23.2693C302.704 23.2693 302.394 23.2075 302.104 23.0875C301.815 22.9676 301.552 22.7917 301.33 22.57C301.108 22.3483 300.932 22.0852 300.812 21.7955C300.692 21.5059 300.631 21.1954 300.631 20.8819V16.3218C300.631 16.0083 300.692 15.6979 300.812 15.4082C300.932 15.1186 301.108 14.8554 301.33 14.6337C301.552 14.4121 301.815 14.2362 302.104 14.1162C302.394 13.9963 302.704 13.9345 303.018 13.9345C303.331 13.9345 303.642 13.9963 303.932 14.1162C304.221 14.2362 304.484 14.4121 304.706 14.6337C304.928 14.8554 305.104 15.1186 305.224 15.4082C305.344 15.6979 305.405 16.0083 305.405 16.3218Z" fill="#FF6A00"/>
<path d="M230.357 16.2844C230.35 16.1262 230.334 15.9686 230.309 15.8123V15.7479C230.187 15.0224 229.905 14.3332 229.483 13.7308C229.074 13.148 228.539 12.6653 227.918 12.3187C227.296 11.9722 226.604 11.7708 225.894 11.7297H225.615C224.489 11.7274 223.398 12.1186 222.53 12.8357C221.662 13.5528 221.072 14.5507 220.862 15.6567H223.233C223.339 15.1155 223.63 14.6279 224.056 14.2768C224.481 13.9257 225.015 13.7328 225.567 13.7308C226.179 13.7385 226.765 13.981 227.205 14.4081C227.644 14.8353 227.902 15.4147 227.927 16.0269V17.1535H224.499C223.485 17.1472 222.505 17.5113 221.741 18.1774C220.977 18.8435 220.483 19.7656 220.351 20.7705C220.219 21.7754 220.459 22.7938 221.025 23.6343C221.591 24.4748 222.445 25.0796 223.426 25.3348H223.49L223.721 25.3885L224.011 25.4314H224.07C224.278 25.4534 224.488 25.4641 224.697 25.4636C225.19 25.4729 225.681 25.4022 226.151 25.2544C226.771 25.0594 227.336 24.7191 227.798 24.2619L227.906 24.1599V25.1471H230.32V23.5376L230.357 16.2844ZM224.96 18.9668H227.927V20.6675C227.927 21.2945 227.708 21.9019 227.307 22.3841C226.907 22.8663 226.349 23.1928 225.733 23.3069C225.557 23.3485 225.377 23.3701 225.196 23.3713C224.765 23.3676 224.343 23.2491 223.973 23.028C223.865 22.9693 223.761 22.903 223.662 22.8295C223.526 22.7199 223.401 22.5957 223.292 22.4593L223.265 22.4271C223.018 22.1088 222.866 21.7275 222.826 21.3269C222.786 20.9262 222.859 20.5223 223.038 20.1614C223.216 19.8004 223.493 19.497 223.836 19.2857C224.178 19.0745 224.574 18.964 224.976 18.9668H224.96Z" fill="#FF6A00"/>
<path d="M252.895 16.295C252.888 16.1368 252.872 15.9791 252.847 15.8229V15.7585C252.725 15.0346 252.443 14.3472 252.02 13.7467C251.611 13.1646 251.076 12.6821 250.454 12.3348C249.833 11.9875 249.142 11.7843 248.431 11.7402H248.152C247.028 11.7375 245.938 12.1272 245.07 12.8422C244.203 13.5571 243.612 14.5525 243.399 15.6566H245.765C245.874 15.0817 246.191 14.5673 246.656 14.2118C247.121 13.8564 247.7 13.6848 248.284 13.73C248.867 13.7751 249.413 14.0339 249.817 14.4567C250.222 14.8795 250.456 15.4366 250.475 16.0214V17.148H247.042C246.031 17.1483 245.054 17.5171 244.296 18.1853C243.537 18.8535 243.047 19.7754 242.919 20.7783C242.791 21.7813 243.032 22.7966 243.599 23.6343C244.165 24.472 245.017 25.0746 245.996 25.3293H246.06L246.291 25.383L246.58 25.4259H246.64C246.848 25.4497 247.057 25.4623 247.267 25.4634C247.76 25.4727 248.251 25.402 248.721 25.2542C249.339 25.055 249.903 24.7153 250.368 24.2617L250.475 24.1598V25.1469H252.89V23.5375L252.895 16.295ZM247.498 18.9774H250.459V20.6995C250.46 21.3265 250.24 21.9339 249.84 22.4161C249.439 22.8983 248.882 23.2248 248.265 23.339C248.089 23.3806 247.909 23.4022 247.729 23.4033C247.298 23.3996 246.875 23.2811 246.505 23.06C246.396 23.0033 246.292 22.9369 246.194 22.8615C246.056 22.752 245.93 22.6279 245.819 22.4913V22.4591C245.53 22.088 245.373 21.6311 245.373 21.1608C245.369 20.5926 245.59 20.0459 245.989 19.6406C246.387 19.2353 246.93 19.0045 247.498 18.9988V18.9774Z" fill="#FF6A00"/>
</g>
<defs>
<clipPath id="clip0_194_1807">
<rect width="158.761" height="20" fill="white" transform="translate(149.064 6)"/>
</clipPath>
</defs>
</svg>
